<svg xmlns="http://www.w3.org/2000/svg" viewBox="0 0 128 128" role="img" aria-label="XRWay favicon">
  <defs>
    <linearGradient id="g" x1="0" x2="1" y1="0" y2="1">
      <stop offset="0" stop-color="#4f46e5"/>
      <stop offset="1" stop-color="#06b6d4"/>
    </linearGradient>
  </defs>
  <rect x="8" y="8" width="112" height="112" rx="30" fill="url(#g)"/>
  <path d="M33 40l18 24-19 25h15l12-16 12 16h15L66 64l18-24H69L59 54 49 40H33z" fill="#fff"/>
  <path d="M86 82c10-9 15-18 15-29 0-13-8-22-19-22-8 0-14 5-18 12l11 7c2-4 4-6 7-6 4 0 7 4 7 10 0 8-5 16-15 26l-7 7h34v-13H86z" fill="#cffafe"/>
</svg>
